<svg xmlns="http://www.w3.org/2000/svg" xmlns:xlink="http://www.w3.org/1999/xlink" class="httpgd" width="800.00" height="600.00" viewBox="0 0 800.00 600.00">
<defs>
  <style type='text/css'><![CDATA[
    .httpgd line, .httpgd polyline, .httpgd polygon, .httpgd path, .httpgd rect, .httpgd circle {
      fill: none;
      stroke: #000000;
      stroke-linecap: round;
      stroke-linejoin: round;
      stroke-miterlimit: 10.00;
    }
  ]]></style>
<clipPath id="c0"><rect x="0.00" y="0.00" width="800.00" height="600.00"/></clipPath>
<clipPath id="c1"><rect x="59.04" y="59.04" width="710.72" height="467.52"/></clipPath>
<clipPath id="c2"><rect x="0.00" y="0.00" width="800.00" height="600.00"/></clipPath>
<clipPath id="c3"><rect x="59.04" y="59.04" width="710.72" height="467.52"/></clipPath>
</defs>
<rect width="100%" height="100%" style="stroke: none;fill: #FFFFFF;"/>
<g clip-path="url(#c0)">
</g><g clip-path="url(#c2)">
<line x1="208.75" y1="526.56" x2="620.05" y2="526.56" style="stroke-width: 0.75;"/>
<line x1="208.75" y1="526.56" x2="208.75" y2="533.76" style="stroke-width: 0.75;"/>
<line x1="414.40" y1="526.56" x2="414.40" y2="533.76" style="stroke-width: 0.75;"/>
<line x1="620.05" y1="526.56" x2="620.05" y2="533.76" style="stroke-width: 0.75;"/>
<g><text x="208.75" y="552.48" text-anchor="middle" style="font-family: Arial;font-size: 24.00px;" textLength="48.04px" lengthAdjust="spacingAndGlyphs">-500</text></g>
<g><text x="414.40" y="552.48" text-anchor="middle" style="font-family: Arial;font-size: 24.00px;" textLength="13.35px" lengthAdjust="spacingAndGlyphs">0</text></g>
<g><text x="620.05" y="552.48" text-anchor="middle" style="font-family: Arial;font-size: 24.00px;" textLength="40.05px" lengthAdjust="spacingAndGlyphs">500</text></g>
<line x1="59.04" y1="461.15" x2="59.04" y2="76.36" style="stroke-width: 0.75;"/>
<line x1="59.04" y1="461.15" x2="51.84" y2="461.15" style="stroke-width: 0.75;"/>
<line x1="59.04" y1="364.95" x2="51.84" y2="364.95" style="stroke-width: 0.75;"/>
<line x1="59.04" y1="268.75" x2="51.84" y2="268.75" style="stroke-width: 0.75;"/>
<line x1="59.04" y1="172.55" x2="51.84" y2="172.55" style="stroke-width: 0.75;"/>
<line x1="59.04" y1="76.36" x2="51.84" y2="76.36" style="stroke-width: 0.75;"/>
<g><text x="44.64" y="469.74" text-anchor="end" style="font-family: Arial;font-size: 24.00px;" textLength="34.69px" lengthAdjust="spacingAndGlyphs">-80</text></g>
<g><text x="44.64" y="373.54" text-anchor="end" style="font-family: Arial;font-size: 24.00px;" textLength="34.69px" lengthAdjust="spacingAndGlyphs">-60</text></g>
<g><text x="44.64" y="277.34" text-anchor="end" style="font-family: Arial;font-size: 24.00px;" textLength="34.69px" lengthAdjust="spacingAndGlyphs">-40</text></g>
<g><text x="44.64" y="181.14" text-anchor="end" style="font-family: Arial;font-size: 24.00px;" textLength="34.69px" lengthAdjust="spacingAndGlyphs">-20</text></g>
<g><text x="44.64" y="84.95" text-anchor="end" style="font-family: Arial;font-size: 24.00px;" textLength="13.35px" lengthAdjust="spacingAndGlyphs">0</text></g>
<polygon points="59.04,526.56 769.76,526.56 769.76,59.04 59.04,59.04" style="stroke-width: 0.75;" />
<g><text x="414.40" y="581.28" text-anchor="middle" style="font-family: Arial;font-size: 13.20px;" textLength="19.79px" lengthAdjust="spacingAndGlyphs">海底</text></g>
<g><text transform="translate(12.96,292.80) rotate(-90.00)" text-anchor="middle" style="font-family: Arial;font-size: 13.20px;" textLength="19.79px" lengthAdjust="spacingAndGlyphs">海拔</text></g>
</g><g clip-path="url(#c3)">
<polygon points="14.12,557.34 85.36,76.36 156.60,557.34" style="stroke-width: 0.75; stroke-dasharray: 1.00, 3.00;fill: #000000;fill-opacity: 0.10;" />
<polygon points="96.38,557.34 167.62,76.36 238.86,557.34" style="stroke-width: 0.75; stroke-dasharray: 1.00, 3.00;fill: #000000;fill-opacity: 0.10;" />
<polygon points="178.64,557.34 249.88,76.36 321.12,557.34" style="stroke-width: 0.75; stroke-dasharray: 1.00, 3.00;fill: #000000;fill-opacity: 0.10;" />
<polygon points="260.90,557.34 332.14,76.36 403.38,557.34" style="stroke-width: 0.75; stroke-dasharray: 1.00, 3.00;fill: #000000;fill-opacity: 0.10;" />
<polygon points="343.16,557.34 414.40,76.36 485.64,557.34" style="stroke-width: 0.75; stroke-dasharray: 1.00, 3.00;fill: #000000;fill-opacity: 0.10;" />
<polygon points="425.42,557.34 496.66,76.36 567.90,557.34" style="stroke-width: 0.75; stroke-dasharray: 1.00, 3.00;fill: #000000;fill-opacity: 0.10;" />
<polygon points="507.68,557.34 578.92,76.36 650.16,557.34" style="stroke-width: 0.75; stroke-dasharray: 1.00, 3.00;fill: #000000;fill-opacity: 0.10;" />
<polygon points="589.94,557.34 661.18,76.36 732.42,557.34" style="stroke-width: 0.75; stroke-dasharray: 1.00, 3.00;fill: #000000;fill-opacity: 0.10;" />
<polygon points="672.20,557.34 743.44,76.36 814.68,557.34" style="stroke-width: 0.75; stroke-dasharray: 1.00, 3.00;fill: #000000;fill-opacity: 0.10;" />
<polyline points="3.10,76.36 825.70,76.36" style="stroke-width: 0.75; stroke-dasharray: 4.00, 4.00;"/>
<polygon points="3.10,539.00 825.70,287.10 825.70,557.34 3.10,557.34" style="stroke-width: 0.75;fill: #FFFFFF;fill-opacity: 0.75;" />
</g>
</svg>