<svg xmlns="http://www.w3.org/2000/svg" xmlns:xlink="http://www.w3.org/1999/xlink" class="httpgd" width="800.00" height="600.00" viewBox="0 0 800.00 600.00">
<defs>
  <style type='text/css'><![CDATA[
    .httpgd line, .httpgd polyline, .httpgd polygon, .httpgd path, .httpgd rect, .httpgd circle {
      fill: none;
      stroke: #000000;
      stroke-linecap: round;
      stroke-linejoin: round;
      stroke-miterlimit: 10.00;
    }
  ]]></style>
<clipPath id="c0"><rect x="0.00" y="0.00" width="800.00" height="600.00"/></clipPath>
<clipPath id="c1"><rect x="59.04" y="59.04" width="710.72" height="467.52"/></clipPath>
<clipPath id="c2"><rect x="0.00" y="0.00" width="800.00" height="600.00"/></clipPath>
<clipPath id="c3"><rect x="59.04" y="59.04" width="710.72" height="467.52"/></clipPath>
</defs>
<rect width="100%" height="100%" style="stroke: none;fill: #FFFFFF;"/>
<g clip-path="url(#c0)">
</g><g clip-path="url(#c2)">
<line x1="85.36" y1="526.56" x2="712.10" y2="526.56" style="stroke-width: 0.75;"/>
<line x1="85.36" y1="526.56" x2="85.36" y2="533.76" style="stroke-width: 0.75;"/>
<line x1="242.05" y1="526.56" x2="242.05" y2="533.76" style="stroke-width: 0.75;"/>
<line x1="398.73" y1="526.56" x2="398.73" y2="533.76" style="stroke-width: 0.75;"/>
<line x1="555.42" y1="526.56" x2="555.42" y2="533.76" style="stroke-width: 0.75;"/>
<line x1="712.10" y1="526.56" x2="712.10" y2="533.76" style="stroke-width: 0.75;"/>
<g><text x="85.36" y="552.48" text-anchor="middle" style="font-family: Arial;font-size: 24.00px;" textLength="33.36px" lengthAdjust="spacingAndGlyphs">0.0</text></g>
<g><text x="242.05" y="552.48" text-anchor="middle" style="font-family: Arial;font-size: 24.00px;" textLength="33.36px" lengthAdjust="spacingAndGlyphs">0.5</text></g>
<g><text x="398.73" y="552.48" text-anchor="middle" style="font-family: Arial;font-size: 24.00px;" textLength="33.36px" lengthAdjust="spacingAndGlyphs">1.0</text></g>
<g><text x="555.42" y="552.48" text-anchor="middle" style="font-family: Arial;font-size: 24.00px;" textLength="33.36px" lengthAdjust="spacingAndGlyphs">1.5</text></g>
<g><text x="712.10" y="552.48" text-anchor="middle" style="font-family: Arial;font-size: 24.00px;" textLength="33.36px" lengthAdjust="spacingAndGlyphs">2.0</text></g>
<line x1="59.04" y1="469.89" x2="59.04" y2="76.36" style="stroke-width: 0.75;"/>
<line x1="59.04" y1="469.89" x2="51.84" y2="469.89" style="stroke-width: 0.75;"/>
<line x1="59.04" y1="371.51" x2="51.84" y2="371.51" style="stroke-width: 0.75;"/>
<line x1="59.04" y1="273.12" x2="51.84" y2="273.12" style="stroke-width: 0.75;"/>
<line x1="59.04" y1="174.74" x2="51.84" y2="174.74" style="stroke-width: 0.75;"/>
<line x1="59.04" y1="76.36" x2="51.84" y2="76.36" style="stroke-width: 0.75;"/>
<g><text x="44.64" y="478.48" text-anchor="end" style="font-family: Arial;font-size: 24.00px;" textLength="48.04px" lengthAdjust="spacingAndGlyphs">-200</text></g>
<g><text x="44.64" y="380.10" text-anchor="end" style="font-family: Arial;font-size: 24.00px;" textLength="48.04px" lengthAdjust="spacingAndGlyphs">-150</text></g>
<g><text x="44.64" y="281.71" text-anchor="end" style="font-family: Arial;font-size: 24.00px;" textLength="48.04px" lengthAdjust="spacingAndGlyphs">-100</text></g>
<g><text x="44.64" y="183.33" text-anchor="end" style="font-family: Arial;font-size: 24.00px;" textLength="34.69px" lengthAdjust="spacingAndGlyphs">-50</text></g>
<g><text x="44.64" y="84.95" text-anchor="end" style="font-family: Arial;font-size: 24.00px;" textLength="13.35px" lengthAdjust="spacingAndGlyphs">0</text></g>
<polygon points="59.04,526.56 769.76,526.56 769.76,59.04 59.04,59.04" style="stroke-width: 0.75;" />
<g><text x="414.40" y="581.28" text-anchor="middle" style="font-family: Arial;font-size: 13.20px;" textLength="19.79px" lengthAdjust="spacingAndGlyphs">海底</text></g>
<g><text transform="translate(12.96,292.80) rotate(-90.00)" text-anchor="middle" style="font-family: Arial;font-size: 13.20px;" textLength="19.79px" lengthAdjust="spacingAndGlyphs">海拔</text></g>
</g><g clip-path="url(#c3)">
<polygon points="-8.65,341.10 837.45,83.46 837.45,568.27 -8.65,568.27" style="stroke-width: 0.75;fill: #0000FF;fill-opacity: 0.25;" />
<polygon points="-8.65,332.72 837.45,150.54 837.45,568.27 -8.65,568.27" style="stroke-width: 0.75;fill: #00FF00;fill-opacity: 0.25;" />
<polygon points="-8.65,312.48 837.45,312.48 837.45,568.27 -8.65,568.27" style="stroke-width: 0.75;fill: #FFFF00;fill-opacity: 0.25;" />
<polygon points="-8.65,292.23 837.45,474.42 837.45,568.27 -8.65,568.27" style="stroke-width: 0.75;fill: #FFA500;fill-opacity: 0.25;" />
<polygon points="-8.65,283.85 837.45,541.50 837.45,568.27 -8.65,568.27" style="stroke-width: 0.75;fill: #FF0000;fill-opacity: 0.25;" />
<polygon points="12.09,568.27 85.36,76.36 158.63,568.27" style="stroke-width: 0.75; stroke-dasharray: 1.00, 3.00;fill: #000000;fill-opacity: 0.10;" />
<polygon points="106.11,568.27 179.37,76.36 252.64,568.27" style="stroke-width: 0.75; stroke-dasharray: 1.00, 3.00;fill: #000000;fill-opacity: 0.10;" />
<polygon points="200.12,568.27 273.38,76.36 346.65,568.27" style="stroke-width: 0.75; stroke-dasharray: 1.00, 3.00;fill: #000000;fill-opacity: 0.10;" />
<polygon points="294.13,568.27 367.39,76.36 440.66,568.27" style="stroke-width: 0.75; stroke-dasharray: 1.00, 3.00;fill: #000000;fill-opacity: 0.10;" />
<polygon points="388.14,568.27 461.41,76.36 534.67,568.27" style="stroke-width: 0.75; stroke-dasharray: 1.00, 3.00;fill: #000000;fill-opacity: 0.10;" />
<polygon points="482.15,568.27 555.42,76.36 628.68,568.27" style="stroke-width: 0.75; stroke-dasharray: 1.00, 3.00;fill: #000000;fill-opacity: 0.10;" />
<polygon points="576.16,568.27 649.43,76.36 722.69,568.27" style="stroke-width: 0.75; stroke-dasharray: 1.00, 3.00;fill: #000000;fill-opacity: 0.10;" />
<polygon points="670.17,568.27 743.44,76.36 816.71,568.27" style="stroke-width: 0.75; stroke-dasharray: 1.00, 3.00;fill: #000000;fill-opacity: 0.10;" />
<polyline points="-3200.00,76.36 4000.00,76.36" style="stroke-width: 0.75; stroke-dasharray: 4.00, 4.00;"/>
</g>
</svg>