<svg xmlns="http://www.w3.org/2000/svg" xmlns:xlink="http://www.w3.org/1999/xlink" class="httpgd" width="2042.00" height="1452.00" viewBox="0 0 1633.60 1161.60">
<defs>
  <style type='text/css'><![CDATA[
    .httpgd line, .httpgd polyline, .httpgd polygon, .httpgd path, .httpgd rect, .httpgd circle {
      fill: none;
      stroke: #000000;
      stroke-linecap: round;
      stroke-linejoin: round;
      stroke-miterlimit: 10.00;
    }
  ]]></style>
<clipPath id="c0"><rect x="0.00" y="0.00" width="1633.60" height="1161.60"/></clipPath>
<clipPath id="c1"><rect x="59.04" y="59.04" width="1544.32" height="1029.12"/></clipPath>
<clipPath id="c2"><rect x="0.00" y="0.00" width="1633.60" height="1161.60"/></clipPath>
<clipPath id="c3"><rect x="59.04" y="59.04" width="1544.32" height="1029.12"/></clipPath>
</defs>
<rect width="100%" height="100%" style="stroke: none;fill: #FFFFFF;"/>
<g clip-path="url(#c0)">
</g><g clip-path="url(#c2)">
<line x1="384.35" y1="1088.16" x2="1278.05" y2="1088.16" style="stroke-width: 0.75;"/>
<line x1="384.35" y1="1088.16" x2="384.35" y2="1095.36" style="stroke-width: 0.75;"/>
<line x1="831.20" y1="1088.16" x2="831.20" y2="1095.36" style="stroke-width: 0.75;"/>
<line x1="1278.05" y1="1088.16" x2="1278.05" y2="1095.36" style="stroke-width: 0.75;"/>
<g><text x="384.35" y="1114.08" text-anchor="middle" style="font-family: Arial;font-size: 24.00px;" textLength="48.04px" lengthAdjust="spacingAndGlyphs">-500</text></g>
<g><text x="831.20" y="1114.08" text-anchor="middle" style="font-family: Arial;font-size: 24.00px;" textLength="13.35px" lengthAdjust="spacingAndGlyphs">0</text></g>
<g><text x="1278.05" y="1114.08" text-anchor="middle" style="font-family: Arial;font-size: 24.00px;" textLength="40.05px" lengthAdjust="spacingAndGlyphs">500</text></g>
<line x1="59.04" y1="944.17" x2="59.04" y2="97.16" style="stroke-width: 0.75;"/>
<line x1="59.04" y1="944.17" x2="51.84" y2="944.17" style="stroke-width: 0.75;"/>
<line x1="59.04" y1="732.41" x2="51.84" y2="732.41" style="stroke-width: 0.75;"/>
<line x1="59.04" y1="520.66" x2="51.84" y2="520.66" style="stroke-width: 0.75;"/>
<line x1="59.04" y1="308.91" x2="51.84" y2="308.91" style="stroke-width: 0.75;"/>
<line x1="59.04" y1="97.16" x2="51.84" y2="97.16" style="stroke-width: 0.75;"/>
<g><text x="44.64" y="952.76" text-anchor="end" style="font-family: Arial;font-size: 24.00px;" textLength="34.69px" lengthAdjust="spacingAndGlyphs">-80</text></g>
<g><text x="44.64" y="741.00" text-anchor="end" style="font-family: Arial;font-size: 24.00px;" textLength="34.69px" lengthAdjust="spacingAndGlyphs">-60</text></g>
<g><text x="44.64" y="529.25" text-anchor="end" style="font-family: Arial;font-size: 24.00px;" textLength="34.69px" lengthAdjust="spacingAndGlyphs">-40</text></g>
<g><text x="44.64" y="317.50" text-anchor="end" style="font-family: Arial;font-size: 24.00px;" textLength="34.69px" lengthAdjust="spacingAndGlyphs">-20</text></g>
<g><text x="44.64" y="105.75" text-anchor="end" style="font-family: Arial;font-size: 24.00px;" textLength="13.35px" lengthAdjust="spacingAndGlyphs">0</text></g>
<polygon points="59.04,1088.16 1603.36,1088.16 1603.36,59.04 59.04,59.04" style="stroke-width: 0.75;" />
<g><text x="831.20" y="1142.88" text-anchor="middle" style="font-family: Arial;font-size: 13.20px;" textLength="19.79px" lengthAdjust="spacingAndGlyphs">海底</text></g>
<g><text transform="translate(12.96,573.60) rotate(-90.00)" text-anchor="middle" style="font-family: Arial;font-size: 13.20px;" textLength="19.79px" lengthAdjust="spacingAndGlyphs">海拔</text></g>
</g><g clip-path="url(#c3)">
<polygon points="-38.56,1155.92 116.24,97.16 271.03,1155.92" style="stroke-width: 0.75; stroke-dasharray: 1.00, 3.00;fill: #000000;fill-opacity: 0.10;" />
<polygon points="140.18,1155.92 294.98,97.16 449.77,1155.92" style="stroke-width: 0.75; stroke-dasharray: 1.00, 3.00;fill: #000000;fill-opacity: 0.10;" />
<polygon points="318.92,1155.92 473.72,97.16 628.51,1155.92" style="stroke-width: 0.75; stroke-dasharray: 1.00, 3.00;fill: #000000;fill-opacity: 0.10;" />
<polygon points="497.67,1155.92 652.46,97.16 807.25,1155.92" style="stroke-width: 0.75; stroke-dasharray: 1.00, 3.00;fill: #000000;fill-opacity: 0.10;" />
<polygon points="676.41,1155.92 831.20,97.16 985.99,1155.92" style="stroke-width: 0.75; stroke-dasharray: 1.00, 3.00;fill: #000000;fill-opacity: 0.10;" />
<polygon points="855.15,1155.92 1009.94,97.16 1164.73,1155.92" style="stroke-width: 0.75; stroke-dasharray: 1.00, 3.00;fill: #000000;fill-opacity: 0.10;" />
<polygon points="1033.89,1155.92 1188.68,97.16 1343.48,1155.92" style="stroke-width: 0.75; stroke-dasharray: 1.00, 3.00;fill: #000000;fill-opacity: 0.10;" />
<polygon points="1212.63,1155.92 1367.42,97.16 1522.22,1155.92" style="stroke-width: 0.75; stroke-dasharray: 1.00, 3.00;fill: #000000;fill-opacity: 0.10;" />
<polygon points="1391.37,1155.92 1546.16,97.16 1700.96,1155.92" style="stroke-width: 0.75; stroke-dasharray: 1.00, 3.00;fill: #000000;fill-opacity: 0.10;" />
<polyline points="-62.50,97.16 1724.90,97.16" style="stroke-width: 0.75; stroke-dasharray: 4.00, 4.00;"/>
<polygon points="-62.50,1115.54 1724.90,561.04 1724.90,1155.92 -62.50,1155.92" style="stroke-width: 0.75;fill: #FFFFFF;fill-opacity: 0.75;" />
</g>
</svg>