<svg xmlns="http://www.w3.org/2000/svg" xmlns:xlink="http://www.w3.org/1999/xlink" class="httpgd" width="800.00" height="600.00" viewBox="0 0 800.00 600.00">
<defs>
  <style type='text/css'><![CDATA[
    .httpgd line, .httpgd polyline, .httpgd polygon, .httpgd path, .httpgd rect, .httpgd circle {
      fill: none;
      stroke: #000000;
      stroke-linecap: round;
      stroke-linejoin: round;
      stroke-miterlimit: 10.00;
    }
  ]]></style>
<clipPath id="c0"><rect x="0.00" y="0.00" width="800.00" height="600.00"/></clipPath>
<clipPath id="c1"><rect x="59.04" y="59.04" width="710.72" height="467.52"/></clipPath>
<clipPath id="c2"><rect x="0.00" y="0.00" width="800.00" height="600.00"/></clipPath>
</defs>
<rect width="100%" height="100%" style="stroke: none;fill: #FFFFFF;"/>
<g clip-path="url(#c0)">
</g><g clip-path="url(#c1)">
<polyline points="85.36,76.36 86.02,111.40 86.68,140.35 87.34,166.25 88.00,187.58 88.66,207.39 89.32,224.17 89.97,239.52 90.63,253.41 91.29,265.82 91.95,276.73 92.61,287.67 93.27,297.09 93.93,305.00 94.59,312.90 95.24,320.82 95.90,327.19 96.56,333.57 97.22,339.94 97.88,346.30 98.54,351.14 99.20,355.95 99.86,360.78 100.51,365.59 101.17,368.85 101.83,373.66 102.49,376.92 103.15,380.17 103.81,383.42 104.47,386.66 105.12,389.90 105.78,393.13 106.44,396.35 107.10,398.04 107.76,401.26 108.42,402.94 109.08,406.15 109.74,407.81 110.39,409.48 111.05,412.67 111.71,414.33 112.37,415.98 113.03,417.63 113.69,419.28 114.35,420.92 115.01,422.56 115.66,424.19 116.32,425.82 116.98,427.45 117.64,429.08 118.30,430.71 118.96,430.80 119.62,432.42 120.28,434.03 120.93,435.64 121.59,435.72 122.25,437.33 122.91,438.93 123.57,439.01 124.23,440.61 124.89,442.22 125.55,442.28 126.20,443.88 126.86,443.94 127.52,445.54 128.18,447.13 128.84,447.19 129.50,448.78 130.16,448.83 130.82,450.42 131.47,450.47 132.13,452.05 132.79,452.10 133.45,452.14 134.11,453.73 134.77,453.77 135.43,455.35 136.09,455.39 136.74,455.43 137.40,457.01 138.06,457.05 138.72,458.63 139.38,458.66 140.04,458.70 140.70,460.27 141.36,460.30 142.01,460.33 142.67,461.90 143.33,461.93 143.99,461.96 144.65,461.99 145.31,463.56 145.97,463.58 146.63,463.60 147.28,465.17 147.94,465.19 148.60,465.22 149.26,465.24 149.92,466.80 150.58,466.82 151.24,466.84 151.89,466.86 152.55,468.43 153.21,468.45 153.87,468.47 154.53,468.48 155.19,470.05 155.85,470.06 156.51,470.08 157.16,470.09 157.82,470.10 158.48,471.67 159.14,471.68 159.80,471.69 160.46,471.70 161.12,471.71 161.78,473.28 162.43,473.29 163.09,473.30 163.75,473.30 164.41,473.31 165.07,473.32 165.73,474.88 166.39,474.89 167.05,474.89 167.70,474.90 168.36,474.90 169.02,474.91 169.68,476.47 170.34,476.47 171.00,476.48 171.66,476.48 172.32,476.48 172.97,476.48 173.63,476.48 174.29,478.05 174.95,478.05 175.61,478.05 176.27,478.05 176.93,478.05 177.59,478.05 178.24,478.05 178.90,479.62 179.56,479.62 180.22,479.61 180.88,479.61 181.54,479.61 182.20,479.61 182.86,479.61 183.51,479.62 184.17,479.63 184.83,481.17 185.49,481.17 186.15,481.18 186.81,481.19 187.47,481.21 188.13,481.23 188.78,481.25 189.44,481.28 190.10,481.30 190.76,482.78 191.42,482.80 192.08,482.83 192.74,482.85 193.40,482.88 194.05,482.91 194.71,482.95 195.37,482.98 196.03,483.02 196.69,483.06 197.35,483.11 198.01,484.51 198.67,484.54 199.32,484.58 199.98,484.62 200.64,484.66 201.30,484.70 201.96,484.75 202.62,484.80 203.28,484.85 203.93,484.89 204.59,484.94 205.25,484.99 205.91,485.05 206.57,486.38 207.23,486.42 207.89,486.47 208.55,486.51 209.20,486.57 209.86,486.62 210.52,486.67 211.18,486.72 211.84,486.77 212.50,486.83 213.16,486.89 213.82,486.95 214.47,487.01 215.13,487.06 215.79,487.12 216.45,488.37 217.11,488.42 217.77,488.48 218.43,488.53 219.09,488.58 219.74,488.64 220.40,488.70 221.06,488.76 221.72,488.81 222.38,488.87 223.04,488.93 223.70,488.98 224.36,489.05 225.01,489.11 225.67,489.17 226.33,489.23 226.99,489.29 227.65,489.35 228.31,490.51 228.97,490.57 229.63,490.63 230.28,490.69 230.94,490.74 231.60,490.80 232.26,490.86 232.92,490.92 233.58,490.98 234.24,491.04 234.90,491.10 235.55,491.16 236.21,491.22 236.87,491.28 237.53,491.34 238.19,491.40 238.85,491.47 239.51,491.53 240.17,491.59 240.82,491.65 241.48,491.71 242.14,491.77 242.80,492.84 243.46,492.90 244.12,492.96 244.78,493.01 245.44,493.07 246.09,493.13 246.75,493.18 247.41,493.24 248.07,493.30 248.73,493.36 249.39,493.42 250.05,493.47 250.70,493.53 251.36,493.59 252.02,493.65 252.68,493.70 253.34,493.76 254.00,493.82 254.66,493.88 255.32,493.94 255.97,494.00 256.63,494.06 257.29,494.11 257.95,494.17 258.61,494.23 259.27,494.29 259.93,494.35 260.59,494.41 261.24,494.47 261.90,494.53 262.56,495.48 263.22,495.54 263.88,495.59 264.54,495.64 265.20,495.69 265.86,495.75 266.51,495.81 267.17,495.86 267.83,495.92 268.49,495.97 269.15,496.02 269.81,496.07 270.47,496.13 271.13,496.18 271.78,496.23 272.44,496.28 273.10,496.34 273.76,496.39 274.42,496.45 275.08,496.50 275.74,496.55 276.40,496.61 277.05,496.66 277.71,496.71 278.37,496.76 279.03,496.81 279.69,496.87 280.35,496.92 281.01,496.97 281.67,497.03 282.32,497.08 282.98,497.13 283.64,497.18 284.30,497.23 284.96,497.28 285.62,497.33 286.28,497.38 286.94,497.43 287.59,497.49 288.25,497.54 288.91,497.59 289.57,497.64 290.23,497.69 290.89,497.74 291.55,497.79 292.21,498.63 292.86,498.67 293.52,498.72 294.18,498.76 294.84,498.81 295.50,498.86 296.16,498.91 296.82,498.96 297.47,499.00 298.13,499.05 298.79,499.09 299.45,499.14 300.11,499.18 300.77,499.23 301.43,499.27 302.09,499.31 302.74,499.36 303.40,499.41 304.06,499.45 304.72,499.50 305.38,499.55 306.04,499.59 306.70,499.64 307.36,499.68 308.01,499.72 308.67,499.77 309.33,499.81 309.99,499.85 310.65,499.89 311.31,499.94 311.97,499.98 312.63,500.03 313.28,500.07 313.94,500.12 314.60,500.16 315.26,500.20 315.92,500.25 316.58,500.29 317.24,500.33 317.90,500.37 318.55,500.42 319.21,500.46 319.87,500.50 320.53,500.54 321.19,500.58 321.85,500.62 322.51,500.67 323.17,500.71 323.82,500.75 324.48,500.79 325.14,500.83 325.80,500.87 326.46,500.92 327.12,500.96 327.78,500.99 328.44,501.03 329.09,501.07 329.75,501.11 330.41,501.15 331.07,501.19 331.73,501.23 332.39,501.27 333.05,501.31 333.71,501.35 334.36,501.39 335.02,501.43 335.68,501.47 336.34,501.51 337.00,501.55 337.66,501.58 338.32,501.62 338.98,501.66 339.63,501.69 340.29,501.73 340.95,501.76 341.61,501.80 342.27,501.84 342.93,501.88 343.59,501.92 344.24,501.95 344.90,501.99 345.56,502.03 346.22,502.06 346.88,502.10 347.54,502.14 348.20,502.17 348.86,502.21 349.51,502.24 350.17,502.28 350.83,502.31 351.49,502.35 352.15,502.38 352.81,502.41 353.47,502.44 354.13,502.48 354.78,502.52 355.44,502.55 356.10,502.59 356.76,502.62 357.42,502.66 358.08,502.69 358.74,502.72 359.40,502.76 360.05,502.79 360.71,502.82 361.37,502.86 362.03,502.89 362.69,502.92 363.35,502.95 364.01,502.98 364.67,503.01 365.32,503.04 365.98,503.07 366.64,503.11 367.30,503.14 367.96,503.17 368.62,503.20 369.28,503.24 369.94,503.27 370.59,503.30 371.25,503.33 371.91,503.36 372.57,503.39 373.23,503.42 373.89,503.45 374.55,503.48 375.21,503.51 375.86,503.54 376.52,503.57 377.18,503.60 377.84,503.63 378.50,503.66 379.16,503.68 379.82,503.71 380.48,503.74 381.13,503.77 381.79,503.80 382.45,503.83 383.11,503.86 383.77,503.89 384.43,503.92 385.09,503.95 385.75,503.98 386.40,504.01 387.06,504.04 387.72,504.06 388.38,504.09 389.04,504.12 389.70,504.15 390.36,504.17 391.01,504.20 391.67,504.23 392.33,504.25 392.99,504.28 393.65,504.30 394.31,504.33 394.97,504.35 395.63,504.38 396.28,504.40 396.94,504.43 397.60,504.46 398.26,504.49 398.92,504.51 399.58,504.54 400.24,504.57 400.90,504.59 401.55,504.62 402.21,504.65 402.87,504.67 403.53,504.70 404.19,504.72 404.85,504.75 405.51,504.77 406.17,504.79 406.82,504.82 407.48,504.84 408.14,504.87 408.80,504.89 409.46,504.91 410.12,504.93 410.78,504.96 411.44,504.98 412.09,505.00 412.75,504.48 413.41,504.51 414.07,504.53 414.73,504.56 415.39,504.58 416.05,504.61 416.71,504.63 417.36,504.65 418.02,504.68 418.68,504.70 419.34,504.72 420.00,504.75 420.66,504.77 421.32,504.79 421.98,504.81 422.63,504.83 423.29,504.86 423.95,504.88 424.61,504.90 425.27,504.92 425.93,504.94 426.59,504.96 427.25,504.98 427.90,505.00 428.56,505.02 429.22,505.04 429.88,505.06 430.54,505.08 431.20,505.09 431.86,505.11 432.52,505.13 433.17,505.15 433.83,505.18 434.49,505.20 435.15,505.22 435.81,505.24 436.47,505.26 437.13,505.28 437.79,505.30 438.44,505.32 439.10,505.34 439.76,505.36 440.42,505.38 441.08,505.40 441.74,505.42 442.40,505.44 443.05,505.46 443.71,505.48 444.37,505.50 445.03,505.52 445.69,505.53 446.35,505.55 447.01,505.57 447.67,505.59 448.32,505.60 448.98,505.62 449.64,505.14 450.30,505.16 450.96,505.17 451.62,505.19 452.28,505.21 452.94,505.22 453.59,505.24 454.25,505.25 454.91,505.27 455.57,505.29 456.23,505.31 456.89,505.33 457.55,505.34 458.21,505.36 458.86,505.38 459.52,505.40 460.18,505.41 460.84,505.43 461.50,505.45 462.16,505.46 462.82,505.48 463.48,505.49 464.13,505.51 464.79,505.53 465.45,505.54 466.11,505.56 466.77,505.57 467.43,505.59 468.09,505.60 468.75,505.61 469.40,505.63 470.06,505.64 470.72,505.66 471.38,505.67 472.04,505.68 472.70,505.70 473.36,505.71 474.02,505.72 474.67,505.74 475.33,505.75 475.99,505.76 476.65,505.30 477.31,505.32 477.97,505.33 478.63,505.34 479.29,505.35 479.94,505.37 480.60,505.38 481.26,505.40 481.92,505.41 482.58,505.43 483.24,505.44 483.90,505.46 484.56,505.47 485.21,505.48 485.87,505.50 486.53,505.51 487.19,505.52 487.85,505.54 488.51,505.55 489.17,505.56 489.82,505.58 490.48,505.59 491.14,505.60 491.80,505.61 492.46,505.62 493.12,505.64 493.78,505.65 494.44,505.66 495.09,505.67 495.75,505.68 496.41,505.69 497.07,505.70 497.73,505.71 498.39,505.72 499.05,505.28 499.71,505.29 500.36,505.30 501.02,505.31 501.68,505.32 502.34,505.33 503.00,505.33 503.66,505.34 504.32,505.35 504.98,505.36 505.63,505.37 506.29,505.38 506.95,505.38 507.61,505.39 508.27,505.40 508.93,505.41 509.59,505.42 510.25,505.43 510.90,505.45 511.56,505.46 512.22,505.47 512.88,505.48 513.54,505.49 514.20,505.50 514.86,505.51 515.52,505.52 516.17,505.53 516.83,505.54 517.49,505.55 518.15,505.56 518.81,505.13 519.47,505.14 520.13,505.15 520.79,505.15 521.44,505.16 522.10,505.17 522.76,505.18 523.42,505.19 524.08,505.19 524.74,505.20 525.40,505.21 526.06,505.22 526.71,505.22 527.37,505.23 528.03,505.24 528.69,505.25 529.35,505.25 530.01,505.26 530.67,505.26 531.33,505.27 531.98,505.28 532.64,505.28 533.30,505.29 533.96,505.29 534.62,505.30 535.28,505.30 535.94,505.31 536.59,505.32 537.25,505.32 537.91,504.90 538.57,504.90 539.23,504.91 539.89,504.91 540.55,504.92 541.21,504.92 541.86,504.93 542.52,504.93 543.18,504.93 543.84,504.94 544.50,504.95 545.16,504.96 545.82,504.96 546.48,504.97 547.13,504.98 547.79,504.98 548.45,504.99 549.11,505.00 549.77,505.00 550.43,505.01 551.09,505.02 551.75,505.02 552.40,505.03 553.06,505.03 553.72,505.04 554.38,505.04 555.04,505.05 555.70,505.06 556.36,505.06 557.02,504.64 557.67,504.65 558.33,504.65 558.99,504.66 559.65,504.66 560.31,504.66 560.97,504.67 561.63,504.67 562.29,504.68 562.94,504.68 563.60,504.69 564.26,504.69 564.92,504.69 565.58,504.70 566.24,504.70 566.90,504.71 567.56,504.71 568.21,504.71 568.87,504.72 569.53,504.72 570.19,504.72 570.85,504.73 571.51,504.73 572.17,504.73 572.83,504.74 573.48,504.74 574.14,504.74 574.80,504.74 575.46,504.75 576.12,504.75 576.78,504.75 577.44,504.34 578.10,504.34 578.75,504.34 579.41,504.34 580.07,504.34 580.73,504.34 581.39,504.34 582.05,504.35 582.71,504.35 583.36,504.35 584.02,504.35 584.68,504.35 585.34,504.35 586.00,504.35 586.66,504.35 587.32,504.36 587.98,504.36 588.63,504.37 589.29,504.37 589.95,504.38 590.61,504.38 591.27,504.39 591.93,504.39 592.59,504.39 593.25,504.40 593.90,504.40 594.56,504.41 595.22,504.41 595.88,504.41 596.54,504.42 597.20,504.42 597.86,504.42 598.52,504.43 599.17,504.43 599.83,504.43 600.49,504.44 601.15,504.44 601.81,504.44 602.47,504.44 603.13,504.45 603.79,504.45 604.44,504.45 605.10,504.45 605.76,504.46 606.42,504.46 607.08,504.46 607.74,504.06 608.40,504.06 609.06,504.07 609.71,504.07 610.37,504.07 611.03,504.07 611.69,504.08 612.35,504.08 613.01,504.08 613.67,504.08 614.33,504.09 614.98,504.09 615.64,504.09 616.30,504.09 616.96,504.10 617.62,504.10 618.28,504.10 618.94,504.10 619.60,504.10 620.25,504.10 620.91,504.11 621.57,504.11 622.23,504.11 622.89,504.11 623.55,504.11 624.21,504.11 624.87,504.11 625.52,504.11 626.18,504.11 626.84,504.11 627.50,504.12 628.16,504.12 628.82,504.12 629.48,504.12 630.13,504.12 630.79,504.12 631.45,504.52 632.11,504.52 632.77,504.52 633.43,504.52 634.09,504.52 634.75,504.52 635.40,504.52 636.06,504.52 636.72,504.52 637.38,504.52 638.04,504.52 638.70,504.53 639.36,504.53 640.02,504.54 640.67,504.54 641.33,504.55 641.99,504.55 642.65,504.56 643.31,504.56 643.97,504.57 644.63,504.57 645.29,504.58 645.94,504.58 646.60,504.59 647.26,504.60 647.92,504.60 648.58,504.61 649.24,504.61 649.90,504.62 650.56,504.62 651.21,504.63 651.87,504.63 652.53,504.64 653.19,504.65 653.85,504.65 654.51,504.66 655.17,504.67 655.83,504.67 656.48,504.68 657.14,505.07 657.80,505.08 658.46,505.08 659.12,505.09 659.78,505.10 660.44,505.10 661.10,505.11 661.75,505.11 662.41,505.12 663.07,505.12 663.73,505.13 664.39,505.14 665.05,505.14 665.71,505.15 666.37,505.15 667.02,505.16 667.68,505.16 668.34,505.17 669.00,505.18 669.66,505.18 670.32,505.19 670.98,505.58 671.64,505.58 672.29,505.59 672.95,505.59 673.61,505.60 674.27,505.60 674.93,505.61 675.59,505.61 676.25,505.62 676.91,505.62 677.56,505.63 678.22,505.64 678.88,505.64 679.54,505.65 680.20,505.66 680.86,505.66 681.52,505.67 682.17,505.68 682.83,506.06 683.49,506.07 684.15,506.07 684.81,506.08 685.47,506.08 686.13,506.09 686.79,506.09 687.44,506.10 688.10,506.10 688.76,506.10 689.42,506.11 690.08,506.11 690.74,506.12 691.40,506.12 692.06,506.13 692.71,506.52 693.37,506.52 694.03,506.52 694.69,506.52 695.35,506.52 696.01,506.52 696.67,506.53 697.33,506.53 697.98,506.53 698.64,506.53 699.30,506.53 699.96,506.53 700.62,506.54 701.28,506.54 701.94,506.54 702.60,506.92 703.25,506.93 703.91,506.94 704.57,506.95 705.23,506.96 705.89,506.97 706.55,506.99 707.21,507.00 707.87,507.01 708.52,507.03 709.18,507.04 709.84,507.05 710.50,507.07 711.16,507.09 711.82,507.10 712.48,507.49 713.14,507.50 713.79,507.51 714.45,507.53 715.11,507.54 715.77,507.55 716.43,507.56 717.09,507.58 717.75,507.59 718.41,507.61 719.06,507.62 719.72,507.64 720.38,507.66 721.04,507.67 721.70,507.68 722.36,507.69 723.02,507.70 723.68,508.09 724.33,508.11 724.99,508.12 725.65,508.13 726.31,508.15 726.97,508.16 727.63,508.18 728.29,508.20 728.94,508.22 729.60,508.24 730.26,508.25 730.92,508.25 731.58,508.26 732.24,508.27 732.90,508.28 733.56,508.68 734.21,508.69 734.87,508.71 735.53,508.72 736.19,508.74 736.85,508.77 737.51,508.80 738.17,508.84 738.83,508.86 739.48,508.86 740.14,508.86 740.80,508.86 741.46,508.86 742.12,508.86 742.78,509.24 743.44,509.24" style="stroke-width: 0.75;"/>
</g><g clip-path="url(#c2)">
<line x1="77.97" y1="526.56" x2="669.50" y2="526.56" style="stroke-width: 0.75;"/>
<line x1="77.97" y1="526.56" x2="77.97" y2="533.76" style="stroke-width: 0.75;"/>
<line x1="225.85" y1="526.56" x2="225.85" y2="533.76" style="stroke-width: 0.75;"/>
<line x1="373.73" y1="526.56" x2="373.73" y2="533.76" style="stroke-width: 0.75;"/>
<line x1="521.61" y1="526.56" x2="521.61" y2="533.76" style="stroke-width: 0.75;"/>
<line x1="669.50" y1="526.56" x2="669.50" y2="533.76" style="stroke-width: 0.75;"/>
<g><text x="77.97" y="552.48" text-anchor="middle" style="font-family: Arial;font-size: 24.00px;" textLength="13.35px" lengthAdjust="spacingAndGlyphs">0</text></g>
<g><text x="225.85" y="552.48" text-anchor="middle" style="font-family: Arial;font-size: 24.00px;" textLength="26.70px" lengthAdjust="spacingAndGlyphs">20</text></g>
<g><text x="373.73" y="552.48" text-anchor="middle" style="font-family: Arial;font-size: 24.00px;" textLength="26.70px" lengthAdjust="spacingAndGlyphs">40</text></g>
<g><text x="521.61" y="552.48" text-anchor="middle" style="font-family: Arial;font-size: 24.00px;" textLength="26.70px" lengthAdjust="spacingAndGlyphs">60</text></g>
<g><text x="669.50" y="552.48" text-anchor="middle" style="font-family: Arial;font-size: 24.00px;" textLength="26.70px" lengthAdjust="spacingAndGlyphs">80</text></g>
<line x1="59.04" y1="432.29" x2="59.04" y2="123.70" style="stroke-width: 0.75;"/>
<line x1="59.04" y1="432.29" x2="51.84" y2="432.29" style="stroke-width: 0.75;"/>
<line x1="59.04" y1="329.43" x2="51.84" y2="329.43" style="stroke-width: 0.75;"/>
<line x1="59.04" y1="226.57" x2="51.84" y2="226.57" style="stroke-width: 0.75;"/>
<line x1="59.04" y1="123.70" x2="51.84" y2="123.70" style="stroke-width: 0.75;"/>
<g><text transform="translate(41.76,432.29) rotate(-90.00)" text-anchor="middle" style="font-family: Arial;font-size: 24.00px;" textLength="80.09px" lengthAdjust="spacingAndGlyphs">500000</text></g>
<g><text transform="translate(41.76,226.57) rotate(-90.00)" text-anchor="middle" style="font-family: Arial;font-size: 24.00px;" textLength="93.44px" lengthAdjust="spacingAndGlyphs">1500000</text></g>
<polygon points="59.04,526.56 769.76,526.56 769.76,59.04 59.04,59.04" style="stroke-width: 0.75;" />
<g><text x="414.40" y="581.28" text-anchor="middle" style="font-family: Arial;font-size: 13.20px;" textLength="7.59px" lengthAdjust="spacingAndGlyphs">β</text></g>
<g><text transform="translate(12.96,292.80) rotate(-90.00)" text-anchor="middle" style="font-family: Arial;font-size: 13.20px;" textLength="29.68px" lengthAdjust="spacingAndGlyphs">总长度</text></g>
</g>
</svg>