<svg xmlns="http://www.w3.org/2000/svg" xmlns:xlink="http://www.w3.org/1999/xlink" class="httpgd" width="800.00" height="600.00" viewBox="0 0 800.00 600.00">
<defs>
  <style type='text/css'><![CDATA[
    .httpgd line, .httpgd polyline, .httpgd polygon, .httpgd path, .httpgd rect, .httpgd circle {
      fill: none;
      stroke: #000000;
      stroke-linecap: round;
      stroke-linejoin: round;
      stroke-miterlimit: 10.00;
    }
  ]]></style>
<clipPath id="c0"><rect x="0.00" y="0.00" width="800.00" height="600.00"/></clipPath>
<clipPath id="c1"><rect x="59.04" y="59.04" width="710.72" height="467.52"/></clipPath>
<clipPath id="c2"><rect x="0.00" y="0.00" width="800.00" height="600.00"/></clipPath>
<clipPath id="c3"><rect x="59.04" y="59.04" width="710.72" height="467.52"/></clipPath>
</defs>
<rect width="100%" height="100%" style="stroke: none;fill: #FFFFFF;"/>
<g clip-path="url(#c0)">
</g><g clip-path="url(#c1)">
<polyline points="743.44,76.36 85.36,76.36 85.36,93.88 717.00,93.88 691.58,110.74 85.36,110.74 85.36,126.90 667.20,126.90 643.85,142.37 85.36,142.37 85.36,157.17 621.53,157.17 600.22,171.30 85.36,171.30 85.36,184.79 579.87,184.79 560.45,197.67 85.36,197.67 85.36,209.95 541.92,209.95 524.26,221.65 85.36,221.65 85.36,232.84 507.39,232.84 491.28,243.52 85.36,243.52 85.36,253.72 475.89,253.72 461.18,263.47 85.36,263.47 85.36,272.82 447.09,272.82 433.61,281.75 85.36,281.75 85.36,290.32 420.68,290.32 408.27,298.55 85.36,298.55 85.36,306.48 396.31,306.48 384.81,314.10 85.36,314.10 85.36,321.46 373.71,321.46 363.02,328.55 85.36,328.55 85.36,335.40 352.69,335.40 342.68,342.03 85.36,342.03 85.36,348.46 332.99,348.46 323.58,354.69 85.36,354.69 85.36,360.75 314.45,360.75 305.57,366.63 85.36,366.63 85.36,372.36 296.92,372.36 288.48,377.96 85.36,377.96 85.36,383.43 280.23,383.43 272.15,388.79 85.36,388.79 85.36,394.03 264.24,394.03 256.48,399.18 85.36,399.18 85.36,404.24 248.84,404.24 241.33,409.22 85.36,409.22 85.36,414.13 233.92,414.13 226.61,418.98 85.36,418.98 85.36,423.77 219.38,423.77 212.23,428.51 85.36,428.51 85.36,433.21 205.14,433.21 198.09,437.88 85.36,437.88 85.36,442.53 191.08,442.53 184.10,447.15 85.36,447.15 85.36,451.77 177.14,451.77 170.18,456.39 85.36,456.39 85.36,461.01 163.21,461.01 156.22,465.64 85.36,465.64 85.36,470.29 149.21,470.29 142.16,474.96 85.36,474.96 85.36,479.67 135.05,479.67 127.88,484.43 85.36,484.43 85.36,489.24 120.61,489.24 113.25,494.12 85.36,494.12 85.36,499.07 105.79,499.07 98.20,504.10 85.36,504.10 85.36,509.24 90.45,509.24" style="stroke-width: 0.75;"/>
</g><g clip-path="url(#c2)">
<line x1="85.36" y1="526.56" x2="618.36" y2="526.56" style="stroke-width: 0.75;"/>
<line x1="85.36" y1="526.56" x2="85.36" y2="533.76" style="stroke-width: 0.75;"/>
<line x1="263.03" y1="526.56" x2="263.03" y2="533.76" style="stroke-width: 0.75;"/>
<line x1="440.69" y1="526.56" x2="440.69" y2="533.76" style="stroke-width: 0.75;"/>
<line x1="618.36" y1="526.56" x2="618.36" y2="533.76" style="stroke-width: 0.75;"/>
<g><text x="85.36" y="552.48" text-anchor="middle" style="font-family: Arial;font-size: 24.00px;" textLength="13.35px" lengthAdjust="spacingAndGlyphs">0</text></g>
<g><text x="263.03" y="552.48" text-anchor="middle" style="font-family: Arial;font-size: 24.00px;" textLength="53.40px" lengthAdjust="spacingAndGlyphs">2000</text></g>
<g><text x="440.69" y="552.48" text-anchor="middle" style="font-family: Arial;font-size: 24.00px;" textLength="53.40px" lengthAdjust="spacingAndGlyphs">4000</text></g>
<g><text x="618.36" y="552.48" text-anchor="middle" style="font-family: Arial;font-size: 24.00px;" textLength="53.40px" lengthAdjust="spacingAndGlyphs">6000</text></g>
<line x1="59.04" y1="512.61" x2="59.04" y2="135.72" style="stroke-width: 0.75;"/>
<line x1="59.04" y1="512.61" x2="51.84" y2="512.61" style="stroke-width: 0.75;"/>
<line x1="59.04" y1="418.39" x2="51.84" y2="418.39" style="stroke-width: 0.75;"/>
<line x1="59.04" y1="324.17" x2="51.84" y2="324.17" style="stroke-width: 0.75;"/>
<line x1="59.04" y1="229.94" x2="51.84" y2="229.94" style="stroke-width: 0.75;"/>
<line x1="59.04" y1="135.72" x2="51.84" y2="135.72" style="stroke-width: 0.75;"/>
<g><text transform="translate(41.76,512.61) rotate(-90.00)" text-anchor="middle" style="font-family: Arial;font-size: 24.00px;" textLength="13.35px" lengthAdjust="spacingAndGlyphs">0</text></g>
<g><text transform="translate(41.76,418.39) rotate(-90.00)" text-anchor="middle" style="font-family: Arial;font-size: 24.00px;" textLength="53.40px" lengthAdjust="spacingAndGlyphs">2000</text></g>
<g><text transform="translate(41.76,324.17) rotate(-90.00)" text-anchor="middle" style="font-family: Arial;font-size: 24.00px;" textLength="53.40px" lengthAdjust="spacingAndGlyphs">4000</text></g>
<g><text transform="translate(41.76,229.94) rotate(-90.00)" text-anchor="middle" style="font-family: Arial;font-size: 24.00px;" textLength="53.40px" lengthAdjust="spacingAndGlyphs">6000</text></g>
<g><text transform="translate(41.76,135.72) rotate(-90.00)" text-anchor="middle" style="font-family: Arial;font-size: 24.00px;" textLength="53.40px" lengthAdjust="spacingAndGlyphs">8000</text></g>
<polygon points="59.04,526.56 769.76,526.56 769.76,59.04 59.04,59.04" style="stroke-width: 0.75;" />
<g><text x="414.40" y="581.28" text-anchor="middle" style="font-family: Arial;font-size: 13.20px;" textLength="49.45px" lengthAdjust="spacingAndGlyphs">东西向(m)</text></g>
<g><text transform="translate(12.96,292.80) rotate(-90.00)" text-anchor="middle" style="font-family: Arial;font-size: 13.20px;" textLength="49.45px" lengthAdjust="spacingAndGlyphs">南北向(m)</text></g>
</g><g clip-path="url(#c3)">
<polyline points="743.44,76.36 743.44,92.26 109.35,512.61 130.06,512.61 743.44,105.99 743.44,120.02 151.23,512.61 172.82,512.61 743.44,134.34 743.44,149.01 194.95,512.61 217.64,512.61 743.44,164.05 743.44,179.48 240.92,512.61 264.79,512.61 743.44,195.30 743.44,211.53 289.27,512.61 314.45,512.61 743.44,228.22 743.44,245.37 340.31,512.61 366.84,512.61 743.44,262.96 743.44,280.97 394.01,512.61 421.84,512.61 743.44,299.42 743.44,318.23 450.22,512.61 479.14,512.61 743.44,337.40 743.44,356.86 508.49,512.61 538.18,512.61 743.44,376.54 743.44,396.37 568.09,512.61 598.07,512.61 743.44,416.25 743.44,436.07 627.98,512.61 657.65,512.61 743.44,455.74 743.44,475.13 686.90,512.61 715.53,512.61 743.44,494.11 743.44,512.61 743.44,512.61" style="stroke-width: 0.75;"/>
</g>
</svg>